<?xml version="1.0" ?><svg height="30px" id="svg8" version="1.1" viewBox="0 0 33.866666 33.866668" width="30" xmlns="http://www.w3.org/2000/svg" xmlns:cc="http://creativecommons.org/ns#" xmlns:dc="http://purl.org/dc/elements/1.1/" xmlns:inkscape="http://www.inkscape.org/namespaces/inkscape" xmlns:rdf="http://www.w3.org/1999/02/22-rdf-syntax-ns#" xmlns:sodipodi="http://sodipodi.sourceforge.net/DTD/sodipodi-0.dtd" xmlns:svg="http://www.w3.org/2000/svg" xmlns:xlink="http://www.w3.org/1999/xlink"><defs id="defs2"><linearGradient id="linearGradient2202"><stop id="stop2198" offset="0" style="stop-color:#f6f600;stop-opacity:1;"/><stop id="stop2200" offset="1" style="stop-color:#f69134;stop-opacity:1"/></linearGradient><linearGradient gradientTransform="matrix(0.39352029,0,0,0.39352035,-185.27183,93.82285)" gradientUnits="userSpaceOnUse" id="linearGradient3363" x1="12.262755" x2="12.262755" xlink:href="#linearGradient2202" y1="9.0164375" y2="14.680936"/><clipPath clipPathUnits="userSpaceOnUse" id="clipPath3457"><rect height="58.93293" id="rect3459" rx="2.6458333" ry="2.6458333" style="fill:#1a1a1a;stroke-width:0.264583;stroke-linecap:square;stroke-dasharray:0.264583, 1.05833;paint-order:fill markers stroke" width="30" x="-262.11121" y="114.49826"/></clipPath><clipPath clipPathUnits="userSpaceOnUse" id="clipPath3791"><ellipse cx="-93.170158" cy="29.747097" id="ellipse3793" rx="45.275459" ry="42.469128" style="fill:#f979e8;fill-opacity:1;stroke:#000080;stroke-width:2.64583;stroke-linecap:round;stroke-linejoin:round;stroke-miterlimit:4;stroke-dasharray:none;stroke-dashoffset:0;paint-order:fill markers stroke"/></clipPath><clipPath clipPathUnits="userSpaceOnUse" id="clipPath3930"><rect height="70.643745" id="rect3932" rx="1.9410441" ry="1.9410441" style="fill:none;fill-opacity:1;stroke:#c82866;stroke-width:0.264583;stroke-linecap:square;stroke-linejoin:miter;stroke-miterlimit:4;stroke-dasharray:0.264583, 1.05833;stroke-dashoffset:0;stroke-opacity:1;paint-order:fill markers stroke" width="73.818748" x="-52.652084" y="51.064583"/></clipPath></defs><g id="layer1"><path d="m 17.764712,22.097243 c 1.284616,-4.794253 7.205667,-4.403231 7.205667,-0.236614 l 0,9.368472 c 0,0.87947 0.70803,1.5875 1.5875,1.5875 h 3.343981 c 0.879473,0 1.587503,-0.70803 1.5875,-1.5875 l 0,-12.840558 c 2.6e-5,-7.584508 -13.863456,-8.4984907 -13.795036,-2.481442 z" id="path4157" style="fill:#00a1ff;fill-opacity:1;stroke:none;stroke-width:0.264583;stroke-linecap:square;stroke-dasharray:0.264583, 1.05833000000000022;paint-order:fill markers stroke"/><path d="m 3.9687497,10.379381 c -0.8794671,0 -1.5875001,0.70803 -1.5875001,1.5875 v 19.26222 c 0,0.87947 0.7080304,1.5875 1.5875001,1.5875 h 3.3439814 c 0.8794723,0 1.5875026,-0.70803 1.5874999,-1.5875 v -19.26222 c 2.7e-6,-0.87947 -0.7080276,-1.5875 -1.5874999,-1.5875 z" id="rect17087" style="fill:#00a1ff;fill-opacity:1;stroke:none;stroke-width:0.264583;stroke-linecap:square;stroke-dasharray:0.264583, 1.05833000000000022;paint-order:fill markers stroke"/><path d="m 13.700991,10.379381 c -0.879467,0 -1.5875,0.70803 -1.5875,1.5875 l 0,19.26222 c 0,0.87947 0.70803,1.5875 1.5875,1.5875 h 3.343981 c 0.879473,0 1.587503,-0.70803 1.5875,-1.5875 l 0,-19.26222 c 3e-6,-0.87947 -0.708027,-1.5875 -1.5875,-1.5875 z" id="path4151" style="fill:#00a1ff;fill-opacity:1;stroke:none;stroke-width:0.264583;stroke-linecap:square;stroke-dasharray:0.264583, 1.05833000000000022;paint-order:fill markers stroke"/><path d="M 5.7133499,7.7174076 A 3.3295373,3.3295373 0 0 1 2.3838126,4.3878703 3.3295373,3.3295373 0 0 1 5.7133499,1.0583329 3.3295373,3.3295373 0 0 1 9.0428872,4.3878703 3.3295373,3.3295373 0 0 1 5.7133499,7.7174076 Z" id="path4163" style="fill:#00a1ff;fill-opacity:1;stroke:none;stroke-width:0.274645;stroke-linecap:square;stroke-linejoin:miter;stroke-miterlimit:4;stroke-dasharray:0.274645, 1.09857999999999989;stroke-dashoffset:0;stroke-opacity:1;paint-order:fill markers stroke"/></g></svg>